<svg width="24" height="24" viewBox="0 0 24 24" fill="none" xmlns="http://www.w3.org/2000/svg">
<rect x="3" y="3" width="18" height="18" rx="3" fill="#3A6150"/>
<path d="M14.7002 8.38993L10.9202 13.3899L9.29019 11.2799C9.12708 11.0704 8.88742 10.9343 8.62393 10.9014C8.36044 10.8686 8.09471 10.9418 7.88519 11.1049C7.67567 11.268 7.53952 11.5077 7.5067 11.7712C7.47389 12.0347 7.54708 12.3004 7.71019 12.5099L10.1402 15.6199C10.2344 15.7391 10.3544 15.8353 10.4913 15.9011C10.6282 15.967 10.7783 16.0008 10.9302 15.9999C11.0829 15.9996 11.2335 15.9642 11.3705 15.8966C11.5074 15.829 11.627 15.7309 11.7202 15.6099L16.2902 9.60993C16.452 9.39776 16.5228 9.13001 16.4872 8.86558C16.4516 8.60116 16.3124 8.36171 16.1002 8.19993C15.888 8.03815 15.6203 7.96728 15.3558 8.00291C15.0914 8.03854 14.852 8.17776 14.6902 8.38993H14.7002Z" fill="white"/>
</svg>
